<svg xmlns="http://www.w3.org/2000/svg" viewBox="0 0 24 24" fill="none" stroke="#ec4899" stroke-width="2" stroke-linecap="round" stroke-linejoin="round" width="24" height="24">
  <path d="M5.8 11.3 2 22l10.7-3.8Z"/>
  <path d="M4 14.5c.9-1.2 2.8-2.6 4.3-2.2c1.5.4 1.5 2.5 3 2.8c1.5.3 3.6-1.5 4.7-2.7"/>
  <path d="M14.5 4c-1.2.9-2.6 2.8-2.2 4.3c.4 1.5 2.5 1.5 2.8 3c.3 1.5-1.5 3.6-2.7 4.7"/>
  <circle cx="18" cy="5" r="1" fill="#ec4899"/>
  <circle cx="12" cy="4" r="1.5" fill="#f43f5e"/>
  <circle cx="20" cy="10" r="1.5" fill="#eab308"/>
  <circle cx="16" cy="14" r="1" fill="#a855f7"/>
  <path d="M19 3v4"/>
  <path d="M17 17l3-3"/>
</svg>
